<svg width="24" height="24" viewBox="0 0 24 24" fill="none" xmlns="http://www.w3.org/2000/svg">
<path d="M19 5H18V7H15V5H9V7H6V5H5C3.899 5 3 5.9 3 7V19C3 20.1 3.899 21 5 21H19C20.1 21 21 20.1 21 19V7C21 5.9 20.1 5 19 5ZM19 19H5V11H19V19ZM8.5 3H6.5V6.5H8.5V3ZM17.5 3H15.5V6.5H17.5V3Z" fill="#545559"/>
<rect x="10.75" y="12" width="2.5" height="2.5" fill="#545559"/>
<rect x="14.75" y="12" width="2.5" height="2.5" fill="#545559"/>
<rect x="6.75" y="12" width="2.5" height="2.5" fill="#545559"/>
<rect x="10.75" y="15.5" width="2.5" height="2.5" fill="#545559"/>
<rect x="14.75" y="15.5" width="2.5" height="2.5" fill="#545559"/>
<rect x="6.75" y="15.5" width="2.5" height="2.5" fill="#545559"/>
</svg>
