<svg width="24" height="24" viewBox="0 0 24 24" fill="none" xmlns="http://www.w3.org/2000/svg">
<path d="M5 12H3L12 3L21 12H19" fill="#545559"/>
<path d="M5 12H3L12 3L21 12H19" stroke="#545559" stroke-width="1.5" stroke-linecap="round" stroke-linejoin="round"/>
<path fill-rule="evenodd" clip-rule="evenodd" d="M5 19V12H19V19C19 19.5304 18.7893 20.0391 18.4142 20.4142C18.0391 20.7893 17.5304 21 17 21H15.75V15C15.75 14.2707 15.4603 13.5712 14.9445 13.0555C14.4288 12.5397 13.7293 12.25 13 12.25H11C10.2707 12.25 9.57118 12.5397 9.05546 13.0555C8.53973 13.5712 8.25 14.2707 8.25 15V21H7C6.46957 21 5.96086 20.7893 5.58579 20.4142C5.21071 20.0391 5 19.5304 5 19ZM9.75 21H14.25V15C14.25 14.6685 14.1183 14.3505 13.8839 14.1161C13.6495 13.8817 13.3315 13.75 13 13.75H11C10.6685 13.75 10.3505 13.8817 10.1161 14.1161C9.8817 14.3505 9.75 14.6685 9.75 15V21Z" fill="#545559"/>
</svg>
