<svg width="18" height="18" viewBox="0 0 18 18" fill="none" xmlns="http://www.w3.org/2000/svg">
<g clip-path="url(#clip0_33_596)">
<path d="M14.9479 4.28748H12.9427C12.846 4.28748 12.7533 4.24907 12.6849 4.1807C12.6165 4.11233 12.5781 4.01959 12.5781 3.9229V3.19373C12.5781 2.56455 12.3287 1.96104 11.8845 1.51545C11.4403 1.06987 10.8375 0.81858 10.2083 0.81665H7.29167C6.66249 0.81858 6.05974 1.06987 5.61553 1.51545C5.17131 1.96104 4.92187 2.56455 4.92188 3.19373V3.9229C4.92188 4.01959 4.88346 4.11233 4.81509 4.1807C4.74672 4.24907 4.65399 4.28748 4.55729 4.28748H2.55208C1.87523 4.28748 1.2261 4.55636 0.747488 5.03497C0.268879 5.51358 0 6.16271 0 6.83957L0 14.1312C0.00192395 14.8075 0.271421 15.4555 0.749613 15.9337C1.22781 16.4119 1.87582 16.6814 2.55208 16.6833H14.9479C15.6242 16.6814 16.2722 16.4119 16.7504 15.9337C17.2286 15.4555 17.4981 14.8075 17.5 14.1312V6.83957C17.5 6.16271 17.2311 5.51358 16.7525 5.03497C16.2739 4.55636 15.6248 4.28748 14.9479 4.28748ZM6.74479 3.19373C6.74478 3.04801 6.80216 2.90815 6.90452 2.80443C7.00687 2.70072 7.14596 2.64148 7.29167 2.63957H10.2083C10.354 2.64148 10.4931 2.70072 10.5955 2.80443C10.6978 2.90815 10.7552 3.04801 10.7552 3.19373V3.9229C10.7552 4.01959 10.7168 4.11233 10.6484 4.1807C10.5801 4.24907 10.4873 4.28748 10.3906 4.28748H7.10938C7.01268 4.28748 6.91995 4.24907 6.85158 4.1807C6.7832 4.11233 6.74479 4.01959 6.74479 3.9229V3.19373ZM12.024 9.90207C12.0019 9.97015 11.9551 10.0274 11.8927 10.0625L11.5208 10.2739C11.474 10.2986 11.4356 10.3369 11.4109 10.3837C11.3862 10.4306 11.3762 10.4838 11.3823 10.5364C11.3895 10.6433 11.3895 10.7505 11.3823 10.8573C11.3817 11.0014 11.3695 11.1453 11.3458 11.2875C11.3353 11.3408 11.3415 11.3961 11.3637 11.4458C11.3859 11.4954 11.423 11.5369 11.4698 11.5646L11.8563 11.7906C11.916 11.8256 11.9594 11.8828 11.9772 11.9497C11.995 12.0167 11.9856 12.0879 11.951 12.1479L11.4187 13.0667C11.3835 13.1281 11.3256 13.1733 11.2574 13.1924C11.1892 13.2115 11.1162 13.203 11.0542 13.1687L10.6458 12.9281C10.6027 12.8993 10.5519 12.8839 10.5 12.8839C10.4481 12.8839 10.3973 12.8993 10.3542 12.9281C10.1508 13.0814 9.92758 13.2065 9.69063 13.3C9.64074 13.3193 9.59795 13.3534 9.56797 13.3977C9.538 13.442 9.52228 13.4944 9.52292 13.5479V14.0219C9.52294 14.0922 9.49552 14.1597 9.44649 14.2101C9.39746 14.2605 9.3307 14.2898 9.26042 14.2917H8.21771C8.14743 14.2898 8.08066 14.2605 8.03163 14.2101C7.9826 14.1597 7.95518 14.0922 7.95521 14.0219V13.5479C7.95584 13.4944 7.94012 13.442 7.91015 13.3977C7.88018 13.3534 7.83739 13.3193 7.7875 13.3C7.52343 13.2054 7.277 13.0674 7.05833 12.8917C7.01517 12.8628 6.96442 12.8474 6.9125 12.8474C6.86058 12.8474 6.80983 12.8628 6.76667 12.8917L6.38021 13.125C6.3182 13.1592 6.24522 13.1677 6.177 13.1486C6.10879 13.1295 6.05083 13.0844 6.01562 13.0229L5.50521 12.0896C5.47967 12.0264 5.47967 11.9558 5.50521 11.8927C5.51505 11.8584 5.53177 11.8266 5.55433 11.799C5.57689 11.7714 5.60484 11.7487 5.63646 11.7323L6.01562 11.5208C6.06438 11.4945 6.10384 11.4537 6.12863 11.4041C6.15342 11.3546 6.16233 11.2986 6.15417 11.2437C6.14319 11.1176 6.14319 10.9907 6.15417 10.8646C6.14305 10.7409 6.14305 10.6164 6.15417 10.4927C6.16347 10.4341 6.15268 10.3742 6.12355 10.3225C6.09442 10.2709 6.04867 10.2306 5.99375 10.2083L5.62188 9.98957C5.56313 9.95216 5.51929 9.89543 5.49792 9.82915C5.47332 9.76332 5.47332 9.69082 5.49792 9.62498L6.05938 8.74998C6.09578 8.68975 6.15427 8.64613 6.22238 8.62842C6.2905 8.61071 6.36283 8.62032 6.42396 8.65519L6.78125 8.86665C6.82587 8.89524 6.87774 8.91043 6.93073 8.91043C6.98372 8.91043 7.03559 8.89524 7.08021 8.86665C7.29887 8.69095 7.54531 8.55295 7.80938 8.45832C7.85868 8.43816 7.90092 8.40387 7.93076 8.35975C7.96061 8.31563 7.97672 8.26366 7.97708 8.2104V7.79478C7.97708 7.72516 8.00474 7.65839 8.05397 7.60916C8.1032 7.55993 8.16996 7.53228 8.23958 7.53228H9.30417C9.37379 7.53228 9.44055 7.55993 9.48978 7.60916C9.53901 7.65839 9.56667 7.72516 9.56667 7.79478V8.2104C9.56856 8.26427 9.58613 8.31641 9.61721 8.36045C9.64829 8.40448 9.69155 8.43849 9.74167 8.45832C10.0068 8.56367 10.2531 8.71143 10.4708 8.89582C10.5147 8.92624 10.5669 8.94253 10.6203 8.94253C10.6737 8.94253 10.7259 8.92624 10.7698 8.89582L11.1271 8.69894C11.1575 8.68099 11.1913 8.66938 11.2264 8.66481C11.2614 8.66023 11.2971 8.66279 11.3311 8.67232C11.3652 8.68186 11.3969 8.69817 11.4245 8.72029C11.4521 8.7424 11.475 8.76987 11.4917 8.80103L12.0021 9.72707C12.0273 9.78175 12.0349 9.84287 12.024 9.90207Z" fill="#545559"/>
<path d="M7.42292 10.8937C7.42292 11.2457 7.56274 11.5832 7.81161 11.8321C8.06049 12.081 8.39804 12.2208 8.75 12.2208C9.10197 12.2208 9.43952 12.081 9.68839 11.8321C9.93727 11.5832 10.0771 11.2457 10.0771 10.8937C10.0771 10.5418 9.93727 10.2042 9.68839 9.95534C9.43952 9.70647 9.10197 9.56665 8.75 9.56665C8.39804 9.56665 8.06049 9.70647 7.81161 9.95534C7.56274 10.2042 7.42292 10.5418 7.42292 10.8937Z" fill="#545559"/>
</g>
<defs>
<clipPath id="clip0_33_596">
<rect width="17.5" height="17.5" fill="white"/>
</clipPath>
</defs>
</svg>
